P3
30 20
255
255 255 255 
241 241 241 
255 255 255 
255 255 255 
250 250 250 
255 255 255 
255 255 255 
255 255 255 
255 255 255 
255 255 255 
248 248 248 
233 233 233 
255 255 255 
255 248 255 
255 239 254 
255 244 255 
255 245 253 
255 251 250 
255 255 244 
255 255 241 
252 255 241 
252 255 241 
249 255 246 
249 255 253 
254 255 255 
255 252 255 
255 251 246 
255 253 244 
255 251 248 
252 254 253 
237 237 237 
4 4 4 
0 0 0 
0 0 0 
0 0 0 
12 12 12 
0 0 0 
0 0 0 
0 0 0 
0 0 0 
4 4 4 
20 20 20 
236 236 236 
252 252 252 
251 255 255 
250 255 255 
251 255 255 
251 255 255 
246 255 250 
244 255 247 
242 255 247 
244 255 248 
249 253 252 
251 255 255 
252 250 255 
249 252 255 
245 255 255 
245 255 255 
252 255 255 
255 253 255 
255 255 255 
0 0 0 
5 5 5 
10 10 10 
3 3 3 
7 7 7 
0 0 0 
0 0 0 
0 0 0 
0 0 0 
0 0 0 
0 0 0 
255 255 255 
239 253 253 
231 255 255 
224 255 255 
226 255 255 
221 255 255 
230 255 255 
228 255 255 
226 255 255 
230 255 255 
241 255 255 
245 255 255 
241 255 255 
233 255 255 
218 255 255 
213 255 255 
247 255 255 
255 248 251 
255 255 255 
8 8 8 
0 0 0 
0 0 0 
0 0 0 
0 0 0 
17 17 17 
5 5 5 
0 0 0 
15 15 15 
4 4 4 
2 2 2 
255 255 255 
235 255 255 
203 255 255 
191 255 255 
196 255 255 
199 255 255 
198 255 255 
197 255 255 
193 255 255 
198 255 255 
217 255 255 
221 255 255 
211 255 255 
200 255 255 
189 255 255 
197 255 255 
238 255 255 
255 251 255 
255 255 255 
2 2 2 
0 0 0 
12 12 12 
15 15 15 
0 0 0 
0 0 0 
4 4 4 
0 0 0 
0 0 0 
0 0 0 
0 0 0 
248 248 248 
213 249 255 
85 183 194 
42 169 184 
43 164 193 
51 167 206 
51 164 206 
48 166 206 
40 170 204 
47 167 201 
69 156 199 
73 154 199 
58 162 199 
47 168 195 
38 171 188 
69 171 186 
205 236 255 
245 233 253 
255 255 255 
4 4 4 
0 0 0 
0 0 0 
0 0 0 
0 0 0 
3 3 3 
0 0 0 
3 3 3 
0 0 0 
6 6 6 
9 9 9 
252 252 252 
218 255 255 
47 169 193 
15 175 207 
18 174 222 
24 179 236 
22 176 238 
16 179 238 
5 185 236 
12 182 233 
37 170 229 
39 169 227 
19 180 226 
11 185 219 
14 184 207 
58 183 203 
227 255 255 
255 248 255 
255 255 255 
0 0 0 
0 0 0 
12 12 12 
0 0 0 
11 11 11 
0 0 0 
0 0 0 
8 8 8 
0 0 0 
3 3 3 
1 1 1 
255 255 255 
219 255 255 
37 172 204 
16 194 232 
11 186 243 
4 177 245 
4 178 251 
0 181 251 
0 188 249 
0 186 246 
18 173 240 
19 173 237 
0 185 235 
0 190 226 
0 181 205 
41 177 199 
223 255 255 
255 248 255 
255 255 255 
0 0 0 
4 4 4 
2 2 2 
0 0 0 
0 0 0 
0 0 0 
0 0 0 
2 2 2 
0 0 0 
9 9 9 
0 0 0 
255 255 255 
219 255 255 
37 172 204 
16 194 232 
11 186 243 
4 177 245 
4 178 251 
0 181 251 
0 188 249 
0 186 246 
18 173 240 
19 173 237 
0 185 235 
0 190 226 
0 181 205 
41 177 199 
223 255 255 
255 248 255 
255 255 255 
0 0 0 
4 4 4 
0 0 0 
0 0 0 
7 7 7 
7 7 7 
4 4 4 
0 0 0 
8 8 8 
6 6 6 
9 9 9 
244 244 244 
218 255 255 
47 169 193 
15 175 207 
18 174 222 
24 179 236 
22 176 238 
16 179 238 
5 185 236 
12 182 233 
37 170 229 
39 169 227 
19 180 226 
11 185 219 
14 184 207 
58 183 203 
227 255 255 
255 248 255 
255 255 255 
0 0 0 
0 0 0 
0 0 0 
0 0 0 
0 0 0 
0 0 0 
0 0 0 
0 0 0 
2 2 2 
0 0 0 
1 1 1 
250 250 250 
213 249 255 
85 183 194 
42 169 184 
43 164 193 
51 167 206 
51 164 206 
48 166 206 
40 170 204 
47 167 201 
69 156 199 
73 154 199 
58 162 199 
47 168 195 
38 171 188 
69 171 186 
205 236 255 
245 233 253 
255 255 255 
0 0 0 
5 5 5 
5 5 5 
9 9 9 
1 1 1 
0 0 0 
2 2 2 
10 10 10 
0 0 0 
0 0 0 
0 0 0 
255 255 255 
235 255 255 
203 255 255 
191 255 255 
196 255 255 
199 255 255 
198 255 255 
197 255 255 
193 255 255 
198 255 255 
217 255 255 
221 255 255 
211 255 255 
200 255 255 
189 255 255 
197 255 255 
238 255 255 
255 251 255 
236 236 236 
11 11 11 
0 0 0 
0 0 0 
0 0 0 
2 2 2 
14 14 14 
0 0 0 
0 0 0 
0 0 0 
0 0 0 
15 15 15 
240 240 240 
239 253 253 
231 255 255 
224 255 255 
226 255 255 
221 255 255 
230 255 255 
228 255 255 
226 255 255 
230 255 255 
241 255 255 
245 255 255 
241 255 255 
233 255 255 
218 255 255 
213 255 255 
247 255 255 
255 255 255 
255 255 191 
229 229 229 
255 255 255 
255 255 255 
255 255 255 
246 246 246 
246 246 246 
255 255 255 
245 245 245 
255 255 255 
255 255 255 
247 247 247 
246 255 255 
247 255 255 
249 255 255 
250 255 255 
251 255 255 
251 255 255 
246 255 250 
244 255 247 
242 255 247 
244 255 248 
248 255 255 
252 255 255 
252 250 255 
249 252 255 
245 255 255 
245 255 255 
254 255 253 
244 246 243 
255 255 209 
234 240 54 
255 255 179 
255 255 198 
255 255 204 
255 255 197 
255 255 204 
255 252 218 
255 254 226 
255 251 209 
255 247 197 
255 250 201 
255 255 220 
240 255 255 
234 255 248 
242 255 253 
243 252 249 
249 255 251 
255 255 244 
255 255 241 
252 255 243 
255 250 251 
255 252 251 
255 254 253 
252 255 255 
255 255 253 
255 254 255 
255 252 246 
255 255 251 
236 241 235 
255 255 211 
234 240 56 
249 248 0 
250 233 68 
241 228 53 
239 235 48 
233 235 48 
239 239 67 
245 240 76 
250 237 71 
247 232 81 
253 239 117 
255 253 174 
255 255 232 
237 255 248 
242 255 250 
244 255 245 
240 243 234 
255 254 248 
255 241 243 
255 239 243 
255 240 243 
255 244 243 
255 247 244 
255 252 244 
255 250 243 
255 243 237 
255 246 241 
255 255 248 
246 249 242 
255 255 202 
237 239 50 
249 249 0 
253 239 0 
254 239 0 
252 247 0 
246 245 0 
242 239 0 
248 242 8 
249 237 5 
243 228 23 
250 236 78 
255 253 156 
255 255 230 
243 255 248 
237 247 236 
255 255 244 
255 251 243 
255 230 236 
255 225 234 
255 222 232 
255 223 230 
255 228 230 
255 233 230 
255 238 230 
255 238 228 
255 223 221 
255 229 228 
255 245 239 
255 255 248 
255 255 200 
238 239 49 
251 248 0 
253 238 0 
255 240 6 
251 240 2 
250 244 0 
250 247 0 
250 242 0 
254 241 2 
255 237 37 
255 239 82 
255 255 164 
255 255 241 
245 240 234 
254 239 232 
255 246 241 
161 79 83 
170 54 63 
187 47 60 
197 42 56 
198 42 55 
191 46 53 
181 51 51 
170 57 49 
169 58 51 
177 52 56 
180 65 72 
164 78 79 
255 230 236 
255 255 205 
241 237 54 
252 246 4 
246 234 34 
251 238 35 
244 239 26 
245 242 23 
246 244 21 
243 241 19 
249 238 32 
249 235 64 
239 223 110 
255 255 160 
255 255 237 
255 246 240 
255 247 243 
255 237 236 
156 55 59 
188 46 58 
209 37 51 
225 30 47 
232 27 42 
227 30 40 
222 33 37 
212 39 35 
206 40 40 
206 35 53 
189 43 64 
161 46 61 
255 231 237 
251 251 197 
237 233 82 
233 235 110 
232 233 95 
235 235 85 
234 236 73 
232 235 66 
232 235 66 
230 235 73 
233 233 87 
234 234 112 
240 238 153 
248 246 189 
255 255 220 
248 255 255 
255 238 243 
255 219 227 
178 65 71 
197 41 55 
217 32 48 
231 26 43 
238 23 39 
239 23 36 
201 45 48 
199 47 46 
193 48 51 
183 48 62 
180 63 81 
169 76 87 
255 223 227 
255 255 220 
255 255 206 
255 255 193 
255 255 182 
255 255 170 
255 255 161 
255 255 156 
255 255 158 
255 255 165 
255 255 177 
255 255 191 
255 255 209 
255 255 223 
255 255 234 
254 255 246 
255 242 244 
255 227 228 
180 91 95 
172 57 64 
186 51 58 
196 47 53 
201 44 51 
255 241 227 
255 242 227 
255 242 227 
255 240 229 
255 232 235 
255 229 237 
255 217 223 
255 243 239 
