P3
15 15
255
255 255 255 
241 241 241 
255 255 255 
255 255 255 
250 250 250 
255 255 255 
255 255 255 
255 255 255 
255 255 255 
255 255 255 
248 248 248 
233 233 233 
252 255 241 
255 252 255 
255 253 244 
237 237 237 
4 4 4 
0 0 0 
0 0 0 
0 0 0 
12 12 12 
0 0 0 
0 0 0 
0 0 0 
0 0 0 
4 4 4 
20 20 20 
236 236 236 
245 255 255 
245 255 255 
255 255 255 
0 0 0 
5 5 5 
10 10 10 
3 3 3 
7 7 7 
0 0 0 
0 0 0 
0 0 0 
0 0 0 
0 0 0 
0 0 0 
255 255 255 
218 255 255 
213 255 255 
255 255 255 
8 8 8 
0 0 0 
0 0 0 
0 0 0 
0 0 0 
17 17 17 
5 5 5 
0 0 0 
15 15 15 
4 4 4 
2 2 2 
255 255 255 
200 255 255 
197 255 255 
255 255 255 
2 2 2 
0 0 0 
12 12 12 
15 15 15 
0 0 0 
0 0 0 
4 4 4 
0 0 0 
0 0 0 
0 0 0 
0 0 0 
248 248 248 
69 156 199 
69 171 186 
255 255 255 
4 4 4 
0 0 0 
0 0 0 
0 0 0 
0 0 0 
3 3 3 
0 0 0 
3 3 3 
0 0 0 
6 6 6 
9 9 9 
252 252 252 
218 255 255 
227 255 255 
255 255 255 
0 0 0 
0 0 0 
12 12 12 
0 0 0 
11 11 11 
0 0 0 
0 0 0 
8 8 8 
0 0 0 
3 3 3 
1 1 1 
255 255 255 
219 255 255 
223 255 255 
255 255 255 
0 0 0 
4 4 4 
2 2 2 
0 0 0 
0 0 0 
0 0 0 
0 0 0 
2 2 2 
0 0 0 
9 9 9 
0 0 0 
255 255 255 
219 255 255 
223 255 255 
255 255 255 
0 0 0 
4 4 4 
0 0 0 
0 0 0 
7 7 7 
7 7 7 
4 4 4 
0 0 0 
8 8 8 
6 6 6 
9 9 9 
244 244 244 
218 255 255 
227 255 255 
255 255 255 
0 0 0 
0 0 0 
0 0 0 
0 0 0 
0 0 0 
0 0 0 
0 0 0 
0 0 0 
2 2 2 
0 0 0 
1 1 1 
250 250 250 
69 171 186 
205 236 255 
255 255 255 
0 0 0 
5 5 5 
5 5 5 
9 9 9 
1 1 1 
0 0 0 
2 2 2 
10 10 10 
0 0 0 
0 0 0 
0 0 0 
255 255 255 
200 255 255 
238 255 255 
236 236 236 
11 11 11 
0 0 0 
0 0 0 
0 0 0 
2 2 2 
14 14 14 
0 0 0 
0 0 0 
0 0 0 
0 0 0 
15 15 15 
240 240 240 
233 255 255 
255 246 241 
255 255 205 
229 229 229 
255 255 255 
255 255 255 
255 255 255 
246 246 246 
246 246 246 
255 255 255 
245 245 245 
255 255 255 
255 255 255 
247 247 247 
255 238 230 
255 238 228 
180 65 72 
251 251 197 
237 233 82 
255 255 179 
255 255 198 
255 255 204 
255 255 197 
255 255 204 
255 252 218 
255 254 226 
255 251 209 
255 247 197 
161 79 83 
170 54 63 
193 48 51 
180 63 81 
255 255 220 
255 255 206 
255 255 193 
255 255 182 
255 255 170 
255 255 161 
255 255 156 
255 255 158 
255 255 165 
255 255 177 
255 237 236 
180 91 95 
172 57 64 
255 241 227 
255 232 235 
